<svg version="1.1" id="Layer_1" xmlns="http://www.w3.org/2000/svg" xmlns:xlink="http://www.w3.org/1999/xlink" x="0px" y="0px"
	 width="100%" viewBox="0 0 496 496" enable-background="new 0 0 496 496" xml:space="preserve">
<path fill="#000000" opacity="1.000000" stroke="none" 
	d="
M90.164558,370.783203 
	C69.080063,342.142548 55.667675,310.510254 52.028923,275.577362 
	C44.843246,206.593170 66.455055,147.815994 118.097755,100.991501 
	C146.281693,75.437088 179.529449,59.409042 217.171890,53.458904 
	C278.953461,43.693108 334.284119,58.702045 381.926941,99.322647 
	C420.085663,131.857025 442.186859,173.639709 449.477539,223.267151 
	C452.354828,242.852997 451.929596,262.396149 449.226044,281.950623 
	C448.708160,285.696533 447.043335,287.302216 443.006165,287.266968 
	C423.507996,287.096802 404.006378,287.092957 384.508575,287.288788 
	C380.469849,287.329376 378.653900,285.869659 377.313751,282.150574 
	C365.517578,249.414398 353.446869,216.777008 341.708344,184.020447 
	C339.947113,179.105713 337.755798,176.946533 332.163239,177.138657 
	C318.512848,177.607559 304.834198,177.398148 291.169983,177.223129 
	C287.588806,177.177277 285.797302,178.425507 284.577179,181.787827 
	C268.616821,225.770538 252.529617,269.707214 236.511871,313.669128 
	C234.621155,318.858368 235.143051,319.606018 240.422913,319.625397 
	C251.922562,319.667633 263.424896,319.493286 274.921021,319.696869 
	C278.845367,319.766357 280.737335,318.054474 281.714691,314.575500 
	C282.794586,310.731567 284.073914,306.942627 285.107819,303.087189 
	C285.802521,300.496826 287.177429,299.081604 289.979980,299.085999 
	C304.646118,299.109131 319.312378,299.087769 333.978577,299.069305 
	C336.561371,299.066040 337.825806,300.382660 338.461029,302.842773 
	C339.500092,306.866394 341.037720,310.769867 341.933380,314.819458 
	C342.781708,318.654999 344.838348,319.742706 348.631561,319.724579 
	C376.297180,319.592499 403.963776,319.648987 431.630005,319.679291 
	C433.765503,319.681641 435.955170,319.311127 438.304535,320.264893 
	C438.821167,323.191376 437.186584,325.652405 436.106171,328.115540 
	C409.597778,388.546967 364.651672,428.078766 300.886169,445.073517 
	C247.804565,459.220734 197.311157,450.923065 149.587082,424.201141 
	C146.242615,422.328491 145.041489,419.947479 145.054108,416.171844 
	C145.154892,386.006561 145.144821,355.840485 145.018555,325.675262 
	C145.000427,321.346130 146.076065,319.375580 150.917175,319.532135 
	C160.059753,319.827759 159.755844,320.822784 159.757141,310.634308 
	C159.759476,292.467926 159.739136,274.301544 159.759445,256.135193 
	C159.761276,254.500610 159.373810,252.798035 160.927780,250.079819 
	C179.827789,271.829773 198.445435,293.254852 217.275024,314.923767 
	C220.789169,311.729340 221.380051,308.163788 222.538116,305.011902 
	C234.480560,272.508179 246.160492,239.907120 258.276703,207.468811 
	C261.515350,198.798141 260.435608,190.074020 260.460754,181.322723 
	C260.470856,177.805847 257.577850,177.313721 254.691635,177.315323 
	C244.691818,177.320877 234.689072,177.443130 224.693573,177.231384 
	C220.468933,177.141891 219.221619,178.866943 219.247620,182.870041 
	C219.372162,202.035583 219.308685,221.202423 219.279190,240.368744 
	C219.276154,242.342346 219.635025,244.367203 218.765198,246.359894 
	C216.163895,246.872131 215.433167,244.576813 214.249451,243.190094 
	C196.938797,222.910522 179.611664,202.644104 162.469528,182.222549 
	C159.544067,178.737411 156.532654,177.015427 151.859039,177.193237 
	C142.872253,177.535095 133.856720,177.490860 124.865921,177.204407 
	C120.276253,177.058167 118.830193,178.593033 118.848969,183.214462 
	C119.002022,220.879807 118.934013,258.546051 118.920303,296.212036 
	C118.917412,304.159576 118.892891,304.159576 110.934036,304.222626 
	C104.426239,304.274200 104.338615,304.346832 104.335182,311.032745 
	C104.323448,333.865753 104.338234,356.698761 104.297371,379.531708 
	C104.293907,381.467316 104.782997,383.496918 103.377357,385.965393 
	C98.014679,381.709900 94.531960,376.078735 90.164558,370.783203 
M147.497375,157.362946 
	C133.498993,157.362946 119.500595,157.362946 104.139359,157.362946 
	C109.198135,160.613953 161.114563,160.665802 165.976242,157.364929 
	C159.249512,157.364929 153.872559,157.364929 147.497375,157.362946 
M300.871033,352.503632 
	C301.335297,350.005127 300.350891,347.254822 302.155914,344.518036 
	C304.661011,346.737396 306.084106,349.322540 307.640167,351.815979 
	C308.405273,353.042023 309.050171,354.735260 310.927124,354.295166 
	C312.840790,353.846466 312.631592,352.078613 312.642334,350.614075 
	C312.667877,347.131134 312.647064,343.647308 312.596558,340.164581 
	C312.578705,338.932037 312.295074,337.810425 310.480682,337.924896 
	C307.874512,340.466766 310.581787,344.310913 308.377258,347.405334 
	C305.381592,345.381195 304.723206,341.867249 302.710632,339.380066 
	C301.981201,338.478607 301.337585,337.403046 299.932037,337.700958 
	C298.772339,337.946808 298.355042,338.889801 298.346313,339.933197 
	C298.311523,344.077179 298.244537,348.225464 298.402283,352.364014 
	C298.454132,353.724548 299.307312,354.605621 300.871033,352.503632 
M282.081390,340.975067 
	C281.707275,343.012238 282.605652,345.320984 280.821320,347.140076 
	C276.514893,345.299866 276.947754,338.149780 270.192230,337.896179 
	C270.973938,343.711212 269.141388,349.150238 271.706879,354.971588 
	C275.056946,351.656860 272.454315,347.812042 274.574921,344.760498 
	C277.262726,347.181915 278.685760,350.196716 280.536133,352.885101 
	C281.107269,353.714966 281.805084,354.496277 282.962555,354.305939 
	C284.139435,354.112366 284.631439,353.206390 284.638367,352.148712 
	C284.664520,348.159119 284.890869,344.139801 284.475983,340.191101 
	C284.257751,338.114197 282.931519,338.402039 282.081390,340.975067 
M155.566071,345.173218 
	C157.252304,347.620667 158.888092,350.105042 160.642120,352.502930 
	C161.860672,354.168762 163.942612,355.491974 164.487640,352.567230 
	C165.370392,347.830170 165.092712,342.913422 164.329453,337.027924 
	C160.883057,340.550232 163.454315,344.428619 161.242157,347.241913 
	C159.225937,346.678009 158.607300,344.857422 157.533417,343.485626 
	C155.894974,341.392700 155.324112,337.092407 151.949203,338.173737 
	C148.720764,339.208160 150.437515,343.155212 150.472168,345.727631 
	C150.509933,348.531403 148.939362,351.926819 152.141129,354.406677 
	C155.432419,351.713562 151.826462,347.346710 155.566071,345.173218 
M348.214508,347.199493 
	C348.620209,351.700684 351.261749,354.111267 355.571350,354.602844 
	C360.364288,355.149475 364.402344,351.604828 364.714600,346.856232 
	C365.055450,341.671936 362.010895,337.716156 357.387634,337.336304 
	C351.682526,336.867584 348.767120,339.730774 348.214508,347.199493 
M208.338196,343.834106 
	C208.344940,346.310608 208.361801,348.787109 208.355148,351.263580 
	C208.350159,353.118469 208.867249,354.338287 211.046249,354.644073 
	C216.418289,355.398010 221.844543,350.761536 221.626434,345.418488 
	C221.454285,341.201202 217.502396,337.729065 212.990646,337.446106 
	C208.730621,337.178955 207.951492,339.494904 208.338196,343.834106 
M373.083008,340.639221 
	C371.624512,345.055389 368.990143,349.100250 368.626556,354.412201 
	C373.622955,349.181427 378.316010,349.567291 383.226471,354.548035 
	C382.323761,348.505127 380.274017,343.315979 377.593384,338.555939 
	C376.122040,335.943176 374.306030,337.966583 373.083008,340.639221 
M262.455811,352.437561 
	C263.370209,353.432251 263.924255,355.335236 266.424255,353.410278 
	C264.492432,348.833923 262.602417,344.085480 260.470154,339.448364 
	C259.694305,337.761078 257.716644,336.613434 256.655548,338.765167 
	C254.247131,343.649017 252.411407,348.815308 250.342850,353.866760 
	C250.730621,354.153564 251.118393,354.440369 251.506149,354.727173 
	C254.572052,351.757263 257.633240,348.766510 262.455811,352.437561 
M203.104401,343.684875 
	C202.794479,341.786621 203.878677,339.449127 201.508728,337.916809 
	C199.094681,340.772034 201.499664,344.387421 199.408310,347.139008 
	C194.864670,345.486023 195.546692,338.503174 189.378540,337.753662 
	C189.062988,343.396210 188.811584,348.646912 190.220337,353.855774 
	C192.675964,351.143188 190.778885,347.683960 192.521271,344.697571 
	C197.395828,346.342957 196.791779,353.793915 203.101196,354.569763 
	C203.101196,350.830109 203.101196,347.702850 203.104401,343.684875 
M183.586395,350.442810 
	C182.498398,347.650330 181.515839,344.810211 180.283875,342.082794 
	C179.513351,340.376953 179.389465,337.719696 176.783539,337.810333 
	C174.547241,337.888123 174.338577,340.265137 173.626633,341.874420 
	C172.347610,344.765442 171.160645,347.698578 169.996719,350.638458 
	C169.545349,351.778503 168.568237,353.045166 170.229599,354.077332 
	C176.748856,349.232544 176.337540,349.502533 184.012650,353.905151 
	C184.595352,352.883881 184.055115,351.985382 183.586395,350.442810 
M233.513229,351.805511 
	C234.616547,352.629150 235.159515,354.392395 238.136337,353.720886 
	C234.138474,350.333557 234.581451,346.935944 236.715820,342.964752 
	C237.923721,340.717407 236.198242,338.395172 233.324036,338.097992 
	C231.243118,337.882874 229.079300,337.287231 226.700592,338.423431 
	C226.104858,343.550507 225.882553,348.706787 226.744080,354.496887 
	C229.577301,352.820953 228.472870,350.195557 230.358124,349.289062 
	C231.648849,349.429413 232.247116,350.516083 233.513229,351.805511 
M343.749023,349.557007 
	C343.753448,347.422607 342.232941,346.418884 340.749756,345.285553 
	C339.301331,344.178802 336.394440,344.009827 337.112335,341.306915 
	C337.755371,338.885681 340.343506,340.520538 341.858093,339.723450 
	C342.083313,339.604950 342.155548,339.195618 342.458282,338.614075 
	C339.414581,336.523987 336.537506,336.615936 334.317383,339.563141 
	C331.973724,342.674347 334.034637,344.766022 336.644653,346.440887 
	C337.343018,346.889008 338.092224,347.257874 338.791229,347.705078 
	C339.693207,348.282166 340.297272,349.090729 339.978058,350.196503 
	C339.661469,351.293243 338.655426,351.610535 337.655853,351.785248 
	C336.160370,352.046600 334.444305,350.432617 333.094055,352.276581 
	C337.128632,356.326874 341.091675,355.570526 343.749023,349.557007 
M323.879791,342.160034 
	C323.826630,339.986694 327.007843,340.373962 327.102081,337.946747 
	C323.759918,337.211823 320.546661,336.809875 316.650696,338.404633 
	C324.055664,342.026611 318.762604,349.428040 322.449951,354.508972 
	C324.678131,350.510315 323.279785,346.636780 323.879791,342.160034 
M243.369766,340.356415 
	C243.596954,344.983093 242.601059,349.720367 244.048004,354.569153 
	C245.090363,354.070129 245.807007,353.954681 245.901474,353.647797 
	C247.394028,348.798309 246.960342,343.776428 246.228378,338.961029 
	C245.867569,336.587372 244.110077,337.831024 243.369766,340.356415 
M290.020508,344.668823 
	C290.490906,347.736511 288.888428,351.119720 292.202942,355.331421 
	C293.110931,348.670868 292.909515,343.437744 292.350067,337.458466 
	C289.301514,339.513519 290.338745,341.841522 290.020508,344.668823 
z"/>
<path fill="#000000" opacity="1.000000" stroke="none" 
	d="
M318.516113,235.626144 
	C321.263947,245.097855 323.768585,254.222717 326.605804,263.242981 
	C327.846588,267.187683 326.589172,268.366272 322.772430,268.319000 
	C314.171600,268.212433 305.568542,268.285522 297.047943,268.285522 
	C296.561188,263.386932 309.289337,220.125641 312.625366,215.943222 
	C314.669342,222.762878 316.538635,228.999832 318.516113,235.626144 
z"/>
<path fill="#000000" opacity="1.000000" stroke="none" 
	d="
M351.568420,344.494843 
	C352.691498,340.937042 354.757477,339.481842 358.101166,340.571289 
	C361.652863,341.728516 361.580048,344.694611 361.145844,347.549957 
	C360.699249,350.486877 358.651581,351.831848 355.774109,351.463013 
	C351.891907,350.965393 351.217377,348.175598 351.568420,344.494843 
z"/>
<path fill="#000000" opacity="1.000000" stroke="none" 
	d="
M218.206009,345.197113 
	C217.939651,349.126251 216.629868,351.596436 212.298447,351.143921 
	C211.042221,347.738403 211.796204,344.379333 211.847092,340.767059 
	C215.695633,339.930847 217.254059,341.851013 218.206009,345.197113 
z"/>
<path fill="#000000" opacity="1.000000" stroke="none" 
	d="
M229.832565,344.308380 
	C229.131027,342.231873 228.639725,340.264801 231.169464,339.817780 
	C232.907944,339.510559 233.978348,340.929871 233.807266,342.514160 
	C233.578110,344.636017 232.265854,345.647369 229.832565,344.308380 
z"/>
</svg>